<?xml version="1.0" standalone="no"?>
<!DOCTYPE svg PUBLIC "-//W3C//DTD SVG 20010904//EN"
 "http://www.w3.org/TR/2001/REC-SVG-20010904/DTD/svg10.dtd">
<svg version="1.0" xmlns="http://www.w3.org/2000/svg"
 width="512.000000pt" height="512.000000pt" viewBox="0 0 512.000000 512.000000"
 preserveAspectRatio="xMidYMid meet">
<metadata>
Created by potrace 1.14, written by Peter Selinger 2001-2017
</metadata>
<g transform="translate(0.000000,512.000000) scale(0.100000,-0.100000)"
fill="#000000" stroke="none">
<path d="M1779 5115 c-2 -1 -31 -6 -64 -9 -315 -30 -677 -183 -935 -394 -104
-85 -269 -264 -350 -380 -94 -135 -203 -351 -254 -502 -63 -190 -98 -402 -98
-599 0 -470 172 -907 493 -1249 27 -28 49 -61 50 -72 0 -11 1 -149 1 -307 1
-159 5 -301 11 -316 17 -50 48 -61 171 -63 61 -1 114 -2 119 -3 4 0 7 -121 7
-267 0 -171 4 -272 11 -286 6 -11 107 -149 225 -306 119 -158 223 -297 232
-310 38 -52 35 -52 558 -52 l488 0 43 48 c24 26 132 166 240 312 109 146 200
267 204 270 29 23 33 62 35 320 1 146 3 267 3 270 1 3 56 5 122 6 l122 0 28
32 c33 36 31 6 30 460 l0 203 85 97 c162 184 296 413 368 632 19 58 37 116 40
130 2 14 10 50 16 80 27 136 37 250 34 399 -2 156 -7 196 -40 366 -38 190
-145 454 -257 630 -192 302 -458 540 -772 689 -117 56 -295 117 -385 132 -14
3 -30 6 -37 9 -6 2 -38 7 -70 11 -32 3 -62 9 -67 12 -10 6 -401 13 -407 7z"/>
<path d="M4267 4929 l-32 -27 -3 -663 c-3 -697 -2 -704 42 -734 24 -17 79 -20
106 -5 42 22 45 44 50 349 l5 294 135 2 c102 1 148 5 190 19 195 66 310 258
274 457 -29 155 -132 270 -289 322 -16 5 -123 10 -238 11 l-207 2 -33 -27z
m453 -192 c74 -33 123 -111 119 -190 -2 -59 -19 -99 -58 -140 -47 -50 -81 -60
-222 -62 l-129 -1 0 206 0 206 128 -1 c91 -2 137 -6 162 -18z"/>
<path d="M4537 3259 c-110 -26 -218 -116 -270 -227 l-32 -67 -2 -385 c-3 -409
-2 -425 47 -519 32 -64 114 -139 189 -175 61 -29 73 -31 171 -30 93 0 112 3
163 28 103 48 180 135 219 244 19 53 20 82 21 422 0 347 -1 369 -21 435 -64
205 -274 324 -485 274z m214 -224 c25 -18 53 -50 67 -78 l25 -47 0 -347 c0
-381 -2 -390 -61 -452 -76 -80 -209 -82 -286 -4 -65 65 -65 65 -66 447 0 322
1 350 19 391 37 83 99 123 193 121 57 -1 73 -5 109 -31z"/>
<path d="M4535 1575 c-131 -34 -239 -137 -285 -271 -17 -47 -19 -92 -20 -412
0 -218 3 -378 10 -406 44 -195 223 -331 422 -320 187 10 346 157 376 345 14
93 -15 146 -85 156 -34 4 -45 1 -72 -23 -25 -23 -33 -41 -41 -86 -11 -72 -30
-109 -76 -146 -108 -90 -264 -46 -322 90 -15 36 -17 683 -2 738 27 101 145
169 246 141 87 -24 137 -84 154 -184 13 -73 36 -102 88 -112 86 -15 131 63
104 179 -53 231 -272 368 -497 311z"/>
</g>
</svg>
